<svg width="325" height="325" viewBox="0 0 325 325" fill="none" xmlns="http://www.w3.org/2000/svg">
<rect x="6" y="6" width="313" height="313" rx="156.5" stroke="#FF3EA5" stroke-opacity="0.2" stroke-width="12"/>
<rect x="33.5" y="34" width="258" height="258" rx="129" fill="#FF3EA5"/>
<path d="M162.785 194.362C164.574 194.362 166.075 193.756 167.288 192.543C168.5 191.331 169.105 189.832 169.1 188.047C169.096 186.262 168.49 184.763 167.282 183.55C166.073 182.338 164.574 181.731 162.785 181.731C160.996 181.731 159.497 182.338 158.288 183.55C157.08 184.763 156.474 186.262 156.47 188.047C156.465 189.832 157.072 191.333 158.288 192.55C159.505 193.766 161.004 194.371 162.785 194.362ZM162.785 169.1C164.574 169.1 166.075 168.494 167.288 167.282C168.5 166.069 169.105 164.57 169.1 162.785V137.523C169.1 135.734 168.494 134.235 167.282 133.027C166.069 131.818 164.57 131.212 162.785 131.208C161 131.204 159.501 131.81 158.288 133.027C157.076 134.244 156.47 135.742 156.47 137.523V162.785C156.47 164.574 157.076 166.075 158.288 167.288C159.501 168.5 161 169.105 162.785 169.1ZM162.785 225.939C154.049 225.939 145.839 224.28 138.155 220.963C130.471 217.645 123.787 213.146 118.103 207.467C112.42 201.787 107.921 195.103 104.607 187.415C101.294 179.727 99.6351 171.517 99.6309 162.785C99.6267 154.053 101.286 145.843 104.607 138.155C107.929 130.467 112.428 123.783 118.103 118.103C123.779 112.424 130.463 107.925 138.155 104.607C145.847 101.29 154.057 99.6309 162.785 99.6309C171.513 99.6309 179.723 101.29 187.415 104.607C195.107 107.925 201.791 112.424 207.467 118.103C213.142 123.783 217.643 130.467 220.969 138.155C224.295 145.843 225.952 154.053 225.939 162.785C225.927 171.517 224.268 179.727 220.963 187.415C217.658 195.103 213.159 201.787 207.467 207.467C201.774 213.146 195.09 217.647 187.415 220.969C179.74 224.291 171.53 225.948 162.785 225.939ZM162.785 213.308C176.889 213.308 188.836 208.414 198.625 198.625C208.414 188.836 213.308 176.889 213.308 162.785C213.308 148.681 208.414 136.734 198.625 126.945C188.836 117.156 176.889 112.262 162.785 112.262C148.681 112.262 136.734 117.156 126.945 126.945C117.156 136.734 112.262 148.681 112.262 162.785C112.262 176.889 117.156 188.836 126.945 198.625C136.734 208.414 148.681 213.308 162.785 213.308Z" fill="white"/>
</svg>
